<svg width="627" height="232" viewBox="0 0 627 232" fill="none" xmlns="http://www.w3.org/2000/svg">
  <path d="M151.865 87.9824V96.4053C151.865 109.914 150.034 122.04 146.372 132.782C142.71 143.524 137.542 152.68 130.869 160.248C124.196 167.735 116.221 173.472 106.943 177.46C97.7474 181.448 87.5342 183.441 76.3037 183.441C65.1546 183.441 54.9414 181.448 45.6641 177.46C36.4681 173.472 28.4928 167.735 21.7383 160.248C14.9837 152.68 9.7347 143.524 5.99121 132.782C2.3291 122.04 0.498047 109.914 0.498047 96.4053V87.9824C0.498047 74.3919 2.3291 62.2663 5.99121 51.6055C9.65332 40.8633 14.821 31.708 21.4941 24.1396C28.2487 16.5713 36.224 10.7933 45.4199 6.80566C54.6973 2.81803 64.9105 0.824219 76.0596 0.824219C87.29 0.824219 97.5033 2.81803 106.699 6.80566C115.977 10.7933 123.952 16.5713 130.625 24.1396C137.38 31.708 142.588 40.8633 146.25 51.6055C149.993 62.2663 151.865 74.3919 151.865 87.9824ZM114.878 96.4053V87.7383C114.878 78.2982 114.023 69.9974 112.314 62.8359C110.605 55.6745 108.083 49.6523 104.746 44.7695C101.41 39.8867 97.3405 36.2246 92.5391 33.7832C87.7376 31.2604 82.2445 29.999 76.0596 29.999C69.8747 29.999 64.3815 31.2604 59.5801 33.7832C54.86 36.2246 50.8317 39.8867 47.4951 44.7695C44.2399 49.6523 41.7578 55.6745 40.0488 62.8359C38.3398 69.9974 37.4854 78.2982 37.4854 87.7383V96.4053C37.4854 105.764 38.3398 114.065 40.0488 121.308C41.7578 128.469 44.2806 134.532 47.6172 139.496C50.9538 144.379 55.0228 148.082 59.8242 150.604C64.6257 153.127 70.1188 154.389 76.3037 154.389C82.4886 154.389 87.9818 153.127 92.7832 150.604C97.5846 148.082 101.613 144.379 104.868 139.496C108.123 134.532 110.605 128.469 112.314 121.308C114.023 114.065 114.878 105.764 114.878 96.4053ZM170.42 116.303V113.739C170.42 104.055 171.803 95.1439 174.57 87.0059C177.337 78.7865 181.366 71.6657 186.655 65.6436C191.945 59.6214 198.455 54.9421 206.187 51.6055C213.918 48.1875 222.788 46.4785 232.798 46.4785C242.808 46.4785 251.719 48.1875 259.531 51.6055C267.344 54.9421 273.895 59.6214 279.185 65.6436C284.556 71.6657 288.625 78.7865 291.392 87.0059C294.159 95.1439 295.542 104.055 295.542 113.739V116.303C295.542 125.906 294.159 134.817 291.392 143.036C288.625 151.174 284.556 158.295 279.185 164.398C273.895 170.421 267.384 175.1 259.653 178.437C251.922 181.773 243.052 183.441 233.042 183.441C223.032 183.441 214.121 181.773 206.309 178.437C198.577 175.1 192.026 170.421 186.655 164.398C181.366 158.295 177.337 151.174 174.57 143.036C171.803 134.817 170.42 125.906 170.42 116.303ZM205.576 113.739V116.303C205.576 121.837 206.064 127.004 207.041 131.806C208.018 136.607 209.564 140.839 211.68 144.501C213.877 148.082 216.725 150.889 220.225 152.924C223.724 154.958 227.996 155.976 233.042 155.976C237.925 155.976 242.116 154.958 245.615 152.924C249.115 150.889 251.922 148.082 254.038 144.501C256.154 140.839 257.7 136.607 258.677 131.806C259.735 127.004 260.264 121.837 260.264 116.303V113.739C260.264 108.368 259.735 103.323 258.677 98.6025C257.7 93.8011 256.113 89.5693 253.916 85.9072C251.8 82.1637 248.993 79.234 245.493 77.1182C241.994 75.0023 237.762 73.9443 232.798 73.9443C227.834 73.9443 223.602 75.0023 220.103 77.1182C216.685 79.234 213.877 82.1637 211.68 85.9072C209.564 89.5693 208.018 93.8011 207.041 98.6025C206.064 103.323 205.576 108.368 205.576 113.739ZM352.305 74.3105V231.781H317.148V48.9199H349.741L352.305 74.3105ZM435.923 113.495V116.059C435.923 125.661 434.784 134.573 432.505 142.792C430.308 151.011 427.052 158.173 422.739 164.276C418.426 170.299 413.055 175.019 406.626 178.437C400.278 181.773 392.954 183.441 384.653 183.441C376.597 183.441 369.598 181.814 363.657 178.559C357.716 175.303 352.712 170.746 348.643 164.887C344.655 158.946 341.44 152.069 338.999 144.257C336.558 136.444 334.686 128.062 333.384 119.11V112.396C334.686 102.794 336.558 94.0046 338.999 86.0293C341.44 77.9727 344.655 71.0146 348.643 65.1553C352.712 59.2145 357.676 54.6165 363.535 51.3613C369.476 48.1061 376.434 46.4785 384.409 46.4785C392.791 46.4785 400.156 48.0654 406.504 51.2393C412.933 54.4131 418.304 58.9704 422.617 64.9111C427.012 70.8519 430.308 77.932 432.505 86.1514C434.784 94.3708 435.923 103.485 435.923 113.495ZM400.645 116.059V113.495C400.645 107.88 400.156 102.712 399.18 97.9922C398.285 93.1908 396.82 88.9997 394.785 85.4189C392.832 81.8382 390.228 79.0713 386.973 77.1182C383.799 75.0837 379.933 74.0664 375.376 74.0664C370.575 74.0664 366.465 74.8395 363.047 76.3857C359.71 77.932 356.984 80.1699 354.868 83.0996C352.752 86.0293 351.165 89.5286 350.107 93.5977C349.049 97.6667 348.398 102.265 348.154 107.392V124.359C348.561 130.382 349.701 135.793 351.572 140.595C353.444 145.315 356.333 149.058 360.239 151.825C364.146 154.592 369.272 155.976 375.62 155.976C380.259 155.976 384.165 154.958 387.339 152.924C390.513 150.808 393.076 147.919 395.029 144.257C397.064 140.595 398.488 136.363 399.302 131.562C400.197 126.76 400.645 121.592 400.645 116.059ZM529.185 144.501C529.185 141.978 528.452 139.7 526.987 137.665C525.522 135.631 522.796 133.759 518.809 132.05C514.902 130.259 509.246 128.632 501.841 127.167C495.168 125.702 488.942 123.871 483.164 121.674C477.467 119.395 472.503 116.669 468.271 113.495C464.121 110.321 460.866 106.578 458.506 102.265C456.146 97.8701 454.966 92.8652 454.966 87.25C454.966 81.7161 456.146 76.5078 458.506 71.625C460.947 66.7422 464.406 62.429 468.882 58.6855C473.439 54.8607 478.973 51.8903 485.483 49.7744C492.075 47.5771 499.481 46.4785 507.7 46.4785C519.175 46.4785 529.022 48.3096 537.241 51.9717C545.542 55.6338 551.89 60.6794 556.284 67.1084C560.76 73.4561 562.998 80.6989 562.998 88.8369H527.842C527.842 85.4189 527.109 82.3672 525.645 79.6816C524.261 76.9147 522.064 74.7581 519.053 73.2119C516.123 71.5843 512.298 70.7705 507.578 70.7705C503.672 70.7705 500.295 71.4622 497.446 72.8457C494.598 74.1478 492.401 75.9382 490.854 78.2168C489.39 80.4141 488.657 82.8555 488.657 85.541C488.657 87.5755 489.064 89.4066 489.878 91.0342C490.773 92.5804 492.197 94.0046 494.15 95.3066C496.104 96.6087 498.626 97.8294 501.719 98.9688C504.893 100.027 508.799 101.003 513.438 101.898C522.959 103.852 531.463 106.415 538.95 109.589C546.437 112.681 552.378 116.913 556.772 122.284C561.167 127.574 563.364 134.532 563.364 143.158C563.364 149.018 562.062 154.389 559.458 159.271C556.854 164.154 553.11 168.427 548.228 172.089C543.345 175.67 537.485 178.477 530.649 180.512C523.895 182.465 516.286 183.441 507.822 183.441C495.534 183.441 485.117 181.244 476.572 176.85C468.109 172.455 461.68 166.881 457.285 160.126C452.972 153.29 450.815 146.291 450.815 139.13H484.141C484.303 143.931 485.524 147.797 487.803 150.727C490.163 153.656 493.133 155.772 496.714 157.074C500.376 158.376 504.323 159.027 508.555 159.027C513.112 159.027 516.896 158.417 519.907 157.196C522.918 155.894 525.197 154.185 526.743 152.069C528.371 149.872 529.185 147.349 529.185 144.501ZM625.864 3.26562L621.836 126.679H592.539L588.389 3.26562H625.864ZM587.412 164.887C587.412 159.678 589.202 155.365 592.783 151.947C596.445 148.448 601.247 146.698 607.188 146.698C613.21 146.698 618.011 148.448 621.592 151.947C625.173 155.365 626.963 159.678 626.963 164.887C626.963 169.932 625.173 174.205 621.592 177.704C618.011 181.203 613.21 182.953 607.188 182.953C601.247 182.953 596.445 181.203 592.783 177.704C589.202 174.205 587.412 169.932 587.412 164.887Z" fill="#177DDC"/>
</svg>
